<?xml version="1.0" encoding="utf-8"?>
<!-- Generator: Adobe Illustrator 22.1.0, SVG Export Plug-In . SVG Version: 6.00 Build 0)  -->
<svg version="1.1" id="Layer_1" xmlns="http://www.w3.org/2000/svg" xmlns:xlink="http://www.w3.org/1999/xlink" x="0px" y="0px"
	viewBox="0 0 1000 1000" style="enable-background:new 0 0 1000 1000;" xml:space="preserve">
<g>
<rect x="105" y="147.73126032" width="5" height="52.2687396803"/>
<rect x="110" y="146.465744911" width="5" height="53.5342550888"/>
<rect x="115" y="145.583805001" width="5" height="54.4161949985"/>
<rect x="120" y="150.35485119" width="5" height="49.6451488102"/>
<rect x="125" y="150.164351714" width="5" height="49.8356482861"/>
<rect x="130" y="153.1287509" width="5" height="46.8712490999"/>
<rect x="135" y="154.925459493" width="5" height="45.0745405067"/>
<rect x="140" y="156.467494767" width="5" height="43.5325052333"/>
<rect x="145" y="153.059918192" width="5" height="46.9400818078"/>
<rect x="150" y="153.527473232" width="5" height="46.4725267679"/>
<rect x="155" y="155.249233646" width="5" height="44.7507663535"/>
<rect x="160" y="152.919282038" width="5" height="47.0807179618"/>
<rect x="165" y="150.193053945" width="5" height="49.8069460553"/>
<rect x="170" y="148.981452031" width="5" height="51.0185479693"/>
<rect x="175" y="151.872369035" width="5" height="48.1276309653"/>
<rect x="180" y="150.008047135" width="5" height="49.9919528649"/>
<rect x="185" y="146.731649929" width="5" height="53.2683500712"/>
<rect x="190" y="143.822637741" width="5" height="56.1773622585"/>
<rect x="195" y="141.824226175" width="5" height="58.1757738248"/>
<rect x="200" y="136.873853298" width="5" height="63.1261467022"/>
<rect x="205" y="140.421983657" width="5" height="59.5780163432"/>
<rect x="210" y="136.333887527" width="5" height="63.6661124733"/>
<rect x="215" y="141.333431614" width="5" height="58.6665683861"/>
<rect x="220" y="136.614368702" width="5" height="63.3856312981"/>
<rect x="225" y="133.018527838" width="5" height="66.9814721618"/>
<rect x="230" y="137.177502743" width="5" height="62.8224972574"/>
<rect x="235" y="133.37369368" width="5" height="66.6263063204"/>
<rect x="240" y="133.303081912" width="5" height="66.6969180882"/>
<rect x="245" y="133.453933058" width="5" height="66.5460669422"/>
<rect x="250" y="130.556688428" width="5" height="69.4433115721"/>
<rect x="255" y="133.147352133" width="5" height="66.8526478672"/>
<rect x="260" y="133.65488232" width="5" height="66.34511768"/>
<rect x="265" y="137.737171699" width="5" height="62.2628283006"/>
<rect x="270" y="140.573794891" width="5" height="59.4262051086"/>
<rect x="275" y="138.41258721" width="5" height="61.5874127904"/>
<rect x="280" y="134.054467079" width="5" height="65.9455329213"/>
<rect x="285" y="130.81716903" width="5" height="69.1828309696"/>
<rect x="290" y="129.520897174" width="5" height="70.4791028262"/>
<rect x="295" y="128.577600523" width="5" height="71.4223994765"/>
<rect x="300" y="128.597398" width="5" height="71.4026019996"/>
<rect x="305" y="125.756160205" width="5" height="74.2438397946"/>
<rect x="310" y="130.010925855" width="5" height="69.9890741454"/>
<rect x="315" y="127.746323159" width="5" height="72.253676841"/>
<rect x="320" y="126.322525858" width="5" height="73.6774741423"/>
<rect x="325" y="128.823796075" width="5" height="71.1762039251"/>
<rect x="330" y="129.114398922" width="5" height="70.885601078"/>
<rect x="335" y="131.641052296" width="5" height="68.3589477041"/>
<rect x="340" y="131.029574607" width="5" height="68.9704253929"/>
<rect x="345" y="133.158597302" width="5" height="66.8414026978"/>
<rect x="350" y="137.946453065" width="5" height="62.0535469352"/>
<rect x="355" y="135.377058012" width="5" height="64.622941988"/>
<rect x="360" y="136.503590006" width="5" height="63.4964099942"/>
<rect x="365" y="134.219617982" width="5" height="65.7803820183"/>
<rect x="370" y="133.806342596" width="5" height="66.1936574043"/>
<rect x="375" y="130.28094761" width="5" height="69.7190523898"/>
<rect x="380" y="133.636049154" width="5" height="66.3639508457"/>
<rect x="385" y="136.361490776" width="5" height="63.6385092237"/>
<rect x="390" y="134.11083194" width="5" height="65.8891680598"/>
<rect x="395" y="136.012027447" width="5" height="63.9879725526"/>
<rect x="400" y="138.977079921" width="5" height="61.0229200791"/>
<rect x="405" y="141.261755343" width="5" height="58.738244657"/>
<rect x="410" y="138.69227489" width="5" height="61.3077251098"/>
<rect x="415" y="135.644373877" width="5" height="64.3556261231"/>
<rect x="420" y="140.209652712" width="5" height="59.7903472879"/>
<rect x="425" y="139.074232922" width="5" height="60.9257670784"/>
<rect x="430" y="143.801233088" width="5" height="56.1987669117"/>
<rect x="435" y="147.281067889" width="5" height="52.7189321114"/>
<rect x="440" y="146.552891576" width="5" height="53.4471084245"/>
<rect x="445" y="147.9174122" width="5" height="52.0825878002"/>
<rect x="450" y="150.790254411" width="5" height="49.2097455892"/>
<rect x="455" y="147.41465409" width="5" height="52.5853459104"/>
<rect x="460" y="145.019651504" width="5" height="54.9803484955"/>
<rect x="465" y="146.733085231" width="5" height="53.2669147692"/>
<rect x="470" y="148.031507926" width="5" height="51.9684920737"/>
<rect x="475" y="151.472371306" width="5" height="48.5276286944"/>
<rect x="480" y="147.556437922" width="5" height="52.4435620783"/>
<rect x="485" y="146.363710215" width="5" height="53.6362897846"/>
<rect x="490" y="149.918873516" width="5" height="50.0811264836"/>
<rect x="495" y="148.201984215" width="5" height="51.7980157846"/>
<rect x="500" y="143.741436561" width="5" height="56.2585634387"/>
<rect x="505" y="140.145873251" width="5" height="59.8541267492"/>
<rect x="510" y="141.287981034" width="5" height="58.7120189658"/>
<rect x="515" y="138.712438904" width="5" height="61.2875610959"/>
<rect x="520" y="138.411971825" width="5" height="61.5880281752"/>
<rect x="525" y="134.068357781" width="5" height="65.9316422191"/>
<rect x="530" y="135.08810498" width="5" height="64.9118950198"/>
<rect x="535" y="132.098385707" width="5" height="67.9016142926"/>
<rect x="540" y="134.532701994" width="5" height="65.4672980056"/>
<rect x="545" y="135.036824888" width="5" height="64.9631751121"/>
<rect x="550" y="139.11032717" width="5" height="60.8896728298"/>
<rect x="555" y="136.1017246" width="5" height="63.8982754002"/>
<rect x="560" y="136.19050006" width="5" height="63.8094999397"/>
<rect x="565" y="131.305211165" width="5" height="68.6947888352"/>
<rect x="570" y="130.569725835" width="5" height="69.4302741652"/>
<rect x="575" y="135.292588219" width="5" height="64.7074117812"/>
<rect x="580" y="138.637654332" width="5" height="61.3623456675"/>
<rect x="585" y="136.554419981" width="5" height="63.4455800185"/>
<rect x="590" y="137.32918208" width="5" height="62.6708179203"/>
<rect x="595" y="139.470472704" width="5" height="60.5295272956"/>
<rect x="600" y="138.79914628" width="5" height="61.2008537202"/>
<rect x="605" y="137.20134643" width="5" height="62.79865357"/>
<rect x="610" y="140.626013836" width="5" height="59.373986164"/>
<rect x="615" y="143.81777942" width="5" height="56.1822205803"/>
<rect x="620" y="144.732555628" width="5" height="55.2674443715"/>
<rect x="625" y="147.714055669" width="5" height="52.2859443308"/>
<rect x="630" y="151.316959648" width="5" height="48.6830403516"/>
<rect x="635" y="150.166872963" width="5" height="49.833127037"/>
<rect x="640" y="154.319005489" width="5" height="45.6809945114"/>
<rect x="645" y="153.134267933" width="5" height="46.8657320667"/>
<rect x="650" y="156.318720638" width="5" height="43.6812793618"/>
<rect x="655" y="159.859794815" width="5" height="40.1402051846"/>
<rect x="660" y="159.187935282" width="5" height="40.8120647182"/>
<rect x="665" y="158.652987334" width="5" height="41.3470126663"/>
<rect x="670" y="160.565048346" width="5" height="39.4349516536"/>
<rect x="675" y="160.964136552" width="5" height="39.0358634475"/>
<rect x="680" y="157.254928078" width="5" height="42.7450719222"/>
<rect x="685" y="155.64853668" width="5" height="44.3514633203"/>
<rect x="690" y="158.940120834" width="5" height="41.0598791661"/>
<rect x="695" y="156.189015407" width="5" height="43.8109845926"/>
<rect x="700" y="157.890308711" width="5" height="42.1096912892"/>
<rect x="705" y="161.653844064" width="5" height="38.3461559357"/>
<rect x="710" y="165.428955094" width="5" height="34.5710449063"/>
<rect x="715" y="164.946713291" width="5" height="35.0532867094"/>
<rect x="720" y="165.840064791" width="5" height="34.1599352087"/>
<rect x="725" y="163.66789212" width="5" height="36.3321078802"/>
<rect x="730" y="164.500309889" width="5" height="35.499690111"/>
<rect x="735" y="162.639849553" width="5" height="37.3601504471"/>
<rect x="740" y="160.931361841" width="5" height="39.0686381595"/>
<rect x="745" y="158.45889557" width="5" height="41.5411044298"/>
<rect x="750" y="162.835465647" width="5" height="37.164534353"/>
<rect x="755" y="164.040781355" width="5" height="35.9592186453"/>
<rect x="760" y="163.951521094" width="5" height="36.0484789062"/>
<rect x="765" y="162.834945772" width="5" height="37.1650542284"/>
<rect x="770" y="166.839143825" width="5" height="33.160856175"/>
<rect x="775" y="161.9488598" width="5" height="38.0511401997"/>
<rect x="780" y="157.590285715" width="5" height="42.409714285"/>
<rect x="785" y="153.275349583" width="5" height="46.7246504167"/>
<rect x="790" y="155.59927508" width="5" height="44.4007249195"/>
<rect x="795" y="159.522393294" width="5" height="40.4776067057"/>
<rect x="800" y="159.890271819" width="5" height="40.1097281809"/>
<rect x="805" y="163.260765084" width="5" height="36.739234916"/>
<rect x="810" y="161.897403217" width="5" height="38.1025967827"/>
<rect x="815" y="165.57631702" width="5" height="34.4236829802"/>
<rect x="820" y="165.285856804" width="5" height="34.7141431957"/>
<rect x="825" y="165.706277374" width="5" height="34.2937226264"/>
<rect x="830" y="169.951239434" width="5" height="30.0487605665"/>
<rect x="835" y="167.60141942" width="5" height="32.3985805797"/>
<rect x="840" y="170.593941447" width="5" height="29.4060585533"/>
<rect x="845" y="168.009010118" width="5" height="31.9909898823"/>
<rect x="850" y="166.490701925" width="5" height="33.5092980747"/>
<rect x="855" y="163.978017775" width="5" height="36.0219822246"/>
<rect x="860" y="161.942340706" width="5" height="38.0576592943"/>
<rect x="865" y="157.188970923" width="5" height="42.8110290768"/>
<rect x="870" y="159.999468934" width="5" height="40.0005310656"/>
<rect x="875" y="162.37528062" width="5" height="37.6247193795"/>
<rect x="880" y="162.168713505" width="5" height="37.8312864947"/>
<rect x="885" y="166.043953378" width="5" height="33.9560466224"/>
<rect x="890" y="170.107137089" width="5" height="29.8928629113"/>
<rect x="895" y="169.230281757" width="5" height="30.7697182432"/>
<rect x="900" y="164.697686983" width="5" height="35.3023130172"/>
<rect x="905" y="164.540145926" width="5" height="35.4598540736"/>
<rect x="910" y="161.608957651" width="5" height="38.3910423492"/>
<rect x="915" y="163.555818902" width="5" height="36.4441810977"/>
<rect x="920" y="160.990228541" width="5" height="39.0097714589"/>
<rect x="925" y="159.065902714" width="5" height="40.9340972864"/>
<rect x="930" y="160.123454247" width="5" height="39.8765457534"/>
<rect x="935" y="158.563513692" width="5" height="41.4364863076"/>
<rect x="940" y="159.118289677" width="5" height="40.881710323"/>
<rect x="945" y="160.31758178" width="5" height="39.6824182205"/>
<rect x="950" y="158.052455824" width="5" height="41.9475441765"/>
<rect x="955" y="155.55590393" width="5" height="44.4440960703"/>
<rect x="960" y="153.693336249" width="5" height="46.3066637506"/>
<rect x="965" y="154.627317112" width="5" height="45.3726828879"/>
<rect x="970" y="151.074605105" width="5" height="48.9253948946"/>
<rect x="975" y="152.760645133" width="5" height="47.239354867"/>
<rect x="980" y="155.168971823" width="5" height="44.831028177"/>
<rect x="985" y="159.354370177" width="5" height="40.6456298228"/>
<rect x="990" y="164.122379397" width="5" height="35.8776206033"/>
<rect x="995" y="168.482943035" width="5" height="31.5170569652"/>
<rect x="1000" y="172.545408322" width="5" height="27.4545916777"/>
<rect x="1005" y="176.910511297" width="5" height="23.0894887029"/>
<rect x="1010" y="181.391044503" width="5" height="18.6089554973"/>
<rect x="1015" y="177.801707179" width="5" height="22.1982928206"/>
<rect x="1020" y="172.825691396" width="5" height="27.1743086036"/>
<rect x="1025" y="170.498545392" width="5" height="29.5014546078"/>
<rect x="1030" y="170.683694681" width="5" height="29.3163053192"/>
<rect x="1035" y="173.708180243" width="5" height="26.2918197568"/>
<rect x="1040" y="170.408997228" width="5" height="29.5910027717"/>
<rect x="1045" y="170.586105036" width="5" height="29.4138949642"/>
<rect x="1050" y="168.94756561" width="5" height="31.0524343902"/>
<rect x="1055" y="167.509515003" width="5" height="32.4904849974"/>
<rect x="1060" y="168.42504051" width="5" height="31.5749594897"/>
<rect x="1065" y="168.707935978" width="5" height="31.2920640218"/>
<rect x="1070" y="170.211521966" width="5" height="29.7884780341"/>
<rect x="1075" y="169.813806805" width="5" height="30.1861931949"/>
<rect x="1080" y="167.142385604" width="5" height="32.8576143957"/>
<rect x="1085" y="166.047635997" width="5" height="33.9523640028"/>
<rect x="1090" y="166.652959893" width="5" height="33.3470401074"/>
<rect x="1095" y="167.815771252" width="5" height="32.1842287481"/>
<rect x="1100" y="165.344562234" width="5" height="34.655437766"/>
</g>
</svg>
